<?xml version="1.0" standalone="no"?>
<!DOCTYPE svg PUBLIC "-//W3C//DTD SVG 20010904//EN"
 "http://www.w3.org/TR/2001/REC-SVG-20010904/DTD/svg10.dtd">
<svg version="1.0" xmlns="http://www.w3.org/2000/svg"
 width="700.000000pt" height="700.000000pt" viewBox="0 0 700.000000 700.000000"
 preserveAspectRatio="xMidYMid meet">
<metadata>
Created by potrace 1.11, written by Peter Selinger 2001-2013
</metadata>
<g transform="translate(0.000000,700.000000) scale(0.100000,-0.100000)"
fill="#000000" stroke="none">
<path d="M4586 6960 c-223 -26 -473 -127 -681 -275 -108 -77 -279 -236 -359
-334 -69 -84 -73 -68 55 -207 254 -277 555 -460 869 -529 116 -26 337 -31 455
-11 309 53 588 211 834 473 50 53 108 121 128 150 l36 52 -43 58 c-197 263
-472 469 -746 561 -170 57 -380 81 -548 62z"/>
<path d="M2600 6084 c-379 -116 -747 -313 -1039 -555 -165 -137 -386 -367
-513 -534 -310 -410 -511 -905 -584 -1440 -28 -200 -25 -611 5 -805 79 -512
251 -945 535 -1345 455 -639 1158 -1088 1926 -1229 363 -67 795 -63 1155 9
930 187 1718 796 2135 1650 197 403 292 792 307 1245 23 728 -207 1416 -667
1994 l-59 75 -173 -88 c-182 -92 -337 -148 -493 -178 -150 -29 -470 -24 -710
11 -104 15 -233 38 -286 52 -452 113 -932 498 -1344 1079 -37 52 -70 95 -74
95 -3 -1 -58 -17 -121 -36z"/>
</g>
</svg>
